<svg xmlns="http://www.w3.org/2000/svg" viewBox="0 0 512 512" width="100%" height="100%">
  <path d="M 78.421 145.340 L 78.421 238.399 L 80.512 238.399 L 80.860 238.747 L 85.043 238.747 L 85.391 239.096 L 87.134 239.096 L 87.483 239.445 L 88.180 239.445 L 88.528 239.793 L 91.317 240.490 L 96.196 243.278 L 100.378 247.461 L 100.378 247.809 L 102.121 249.901 L 104.561 254.780 L 104.909 256.871 L 105.607 257.917 L 105.607 259.311 L 105.955 259.660 L 105.955 265.585 L 105.607 265.933 L 105.607 267.327 L 105.258 267.676 L 105.258 269.070 L 104.909 269.419 L 104.561 274.995 L 104.212 275.344 L 104.212 276.389 L 103.864 276.738 L 103.515 278.829 L 102.121 281.617 L 101.076 282.663 L 101.076 283.012 L 97.242 286.497 L 92.362 288.937 L 91.665 288.937 L 91.317 289.285 L 90.619 289.285 L 89.225 289.982 L 88.180 289.982 L 87.831 290.331 L 86.437 290.331 L 86.088 290.679 L 84.346 290.679 L 83.997 291.028 L 79.118 291.028 L 78.421 291.376 L 78.421 385.830 L 78.769 386.178 L 172.874 386.178 L 173.223 385.830 L 177.405 385.830 L 177.754 385.481 L 177.754 311.940 L 177.405 311.592 L 178.102 310.894 L 240.142 310.894 L 240.490 310.546 L 240.490 249.552 L 240.142 249.204 L 178.102 249.204 L 177.754 248.855 L 177.754 230.034 L 178.102 229.686 L 249.901 229.686 L 250.946 230.731 L 250.946 231.428 L 253.037 235.262 L 253.037 235.959 L 255.477 240.839 L 255.477 241.536 L 256.871 243.975 L 256.871 244.673 L 257.568 245.370 L 257.568 246.067 L 258.963 248.855 L 258.963 249.552 L 261.054 253.386 L 261.054 254.083 L 262.448 256.523 L 262.448 257.220 L 264.888 262.099 L 264.888 262.796 L 265.585 263.494 L 265.933 265.236 L 266.630 265.933 L 266.630 266.630 L 267.327 267.676 L 267.327 268.373 L 269.070 271.510 L 269.070 272.207 L 270.464 274.647 L 270.464 275.344 L 271.510 277.086 L 271.510 277.784 L 272.904 280.223 L 272.904 280.920 L 273.950 282.663 L 273.950 283.360 L 274.995 285.103 L 274.995 285.800 L 276.389 288.240 L 276.389 288.937 L 277.086 289.634 L 277.086 290.331 L 278.481 292.771 L 278.481 293.468 L 280.920 298.347 L 280.920 299.044 L 282.314 301.484 L 282.314 302.181 L 283.360 303.924 L 283.360 304.621 L 285.103 307.758 L 285.103 308.455 L 286.497 310.894 L 286.497 311.592 L 287.891 314.031 L 287.891 314.728 L 288.588 315.425 L 288.588 316.123 L 289.634 317.865 L 289.634 318.562 L 291.376 322.048 L 291.376 322.745 L 292.074 323.442 L 292.074 324.139 L 293.468 326.579 L 293.468 327.276 L 294.513 329.018 L 294.513 329.715 L 296.604 333.549 L 296.604 334.246 L 297.302 335.292 L 297.302 335.989 L 299.044 339.126 L 299.044 339.823 L 301.484 344.703 L 301.484 345.400 L 302.530 347.142 L 302.530 347.839 L 303.924 350.279 L 303.924 350.976 L 304.969 352.719 L 304.969 353.416 L 306.015 355.159 L 306.015 355.856 L 309.500 362.826 L 309.500 363.523 L 311.940 368.403 L 311.940 369.100 L 312.637 369.797 L 312.637 370.494 L 314.031 372.934 L 314.031 373.631 L 316.471 378.511 L 316.471 379.208 L 318.911 384.087 L 318.911 384.784 L 319.259 385.481 L 320.305 386.178 L 335.641 386.178 L 335.989 385.830 L 339.474 385.830 L 340.172 384.436 L 340.172 383.739 L 344.005 376.071 L 344.005 375.374 L 345.051 373.631 L 345.051 372.934 L 348.188 366.660 L 348.188 365.963 L 349.582 363.523 L 349.582 362.826 L 351.673 358.993 L 351.673 358.295 L 354.113 353.416 L 354.113 352.719 L 356.553 347.839 L 356.553 347.142 L 358.295 344.005 L 358.295 343.308 L 361.084 337.732 L 361.084 337.035 L 363.523 332.155 L 363.523 331.458 L 365.266 328.321 L 365.266 327.624 L 368.054 322.048 L 368.054 321.351 L 368.752 320.654 L 369.100 318.911 L 369.797 318.214 L 369.797 317.517 L 371.191 315.077 L 371.191 314.380 L 373.631 309.500 L 373.631 308.803 L 376.071 304.272 L 376.071 303.575 L 378.511 298.696 L 378.511 297.999 L 379.208 297.302 L 379.208 296.604 L 380.602 294.165 L 380.602 293.468 L 381.647 291.725 L 381.647 291.028 L 383.042 288.588 L 383.042 287.891 L 384.087 286.148 L 384.087 285.451 L 385.481 282.663 L 385.830 282.663 L 386.527 283.360 L 386.527 284.057 L 387.921 286.497 L 387.921 287.194 L 388.967 289.285 L 389.664 289.982 L 390.012 291.028 L 390.709 291.725 L 391.406 293.119 L 393.498 295.559 L 393.498 295.907 L 399.771 302.181 L 400.120 302.181 L 401.165 303.227 L 401.514 303.227 L 402.908 304.621 L 404.999 305.666 L 406.045 306.712 L 409.879 308.455 L 411.622 309.849 L 411.622 335.292 L 409.879 336.686 L 407.439 337.732 L 406.742 338.429 L 403.954 339.823 L 400.468 342.611 L 400.120 342.611 L 398.726 344.005 L 398.377 344.005 L 392.452 349.931 L 392.452 350.279 L 390.361 352.719 L 390.361 353.067 L 388.967 354.810 L 388.618 355.856 L 387.921 356.553 L 387.572 357.947 L 386.527 359.341 L 386.527 360.038 L 385.830 361.084 L 385.481 362.826 L 384.784 363.872 L 384.087 364.221 L 357.598 364.221 L 356.553 365.963 L 356.553 366.660 L 355.507 368.403 L 355.507 369.100 L 354.462 370.843 L 354.462 371.540 L 353.067 373.980 L 353.067 374.677 L 352.022 376.419 L 352.022 377.116 L 350.976 378.511 L 350.976 379.208 L 349.931 380.950 L 349.931 381.647 L 348.536 384.087 L 348.188 386.178 L 367.706 386.178 L 368.054 385.830 L 368.752 385.830 L 369.100 386.178 L 369.797 385.830 L 370.146 386.178 L 370.843 385.830 L 374.328 385.830 L 374.677 386.178 L 376.419 386.178 L 376.768 385.830 L 382.693 385.830 L 383.042 386.178 L 385.481 386.178 L 385.830 385.830 L 386.178 386.178 L 386.875 385.830 L 387.921 385.830 L 388.618 386.178 L 388.967 385.830 L 390.709 385.830 L 391.406 386.178 L 391.755 385.830 L 392.103 386.178 L 392.801 386.178 L 393.149 385.830 L 403.257 385.830 L 403.257 380.950 L 403.605 380.602 L 403.605 377.813 L 403.954 377.465 L 403.954 376.419 L 404.302 376.071 L 404.651 373.631 L 405.348 372.585 L 405.348 371.888 L 406.045 370.843 L 406.045 370.146 L 407.091 368.054 L 407.788 367.357 L 408.833 365.266 L 410.227 363.872 L 410.227 363.523 L 415.455 358.644 L 416.501 358.295 L 418.244 356.901 L 421.729 355.159 L 423.472 354.810 L 424.517 354.113 L 428.003 353.764 L 428.351 353.416 L 430.442 353.416 L 430.791 353.067 L 433.231 353.067 L 433.579 352.719 L 433.231 352.022 L 433.579 351.325 L 433.579 348.885 L 433.231 348.536 L 433.231 291.376 L 430.791 291.376 L 430.442 291.028 L 427.306 291.028 L 426.957 290.679 L 425.912 290.679 L 425.563 290.331 L 424.517 290.331 L 424.169 289.982 L 422.775 289.982 L 422.426 289.634 L 421.729 289.634 L 420.683 288.937 L 419.986 288.937 L 417.198 287.543 L 416.501 286.845 L 415.455 286.497 L 414.410 285.451 L 414.061 285.451 L 409.530 280.920 L 409.530 280.572 L 408.136 278.829 L 407.788 277.784 L 407.091 277.086 L 407.091 276.389 L 406.045 274.647 L 406.045 273.950 L 405.696 273.601 L 405.696 272.904 L 404.999 271.510 L 404.999 270.464 L 404.651 270.116 L 404.651 268.025 L 404.302 267.676 L 404.302 262.448 L 404.651 262.099 L 404.651 260.008 L 404.999 259.660 L 404.999 258.614 L 405.696 257.220 L 405.696 256.174 L 407.439 252.340 L 408.136 251.643 L 409.182 249.552 L 410.576 248.158 L 410.576 247.809 L 413.713 244.673 L 414.061 244.673 L 415.107 243.627 L 420.683 240.490 L 421.381 240.490 L 421.729 240.142 L 422.426 240.142 L 422.775 239.793 L 423.472 239.793 L 424.866 239.096 L 426.609 239.096 L 426.957 238.747 L 430.094 238.747 L 430.442 238.399 L 433.231 238.399 L 433.231 176.708 L 429.048 176.708 L 428.700 176.359 L 424.517 176.011 L 424.169 175.662 L 423.472 175.662 L 422.078 174.965 L 421.032 174.965 L 419.289 173.920 L 418.592 173.920 L 417.198 173.223 L 416.501 172.526 L 414.410 171.480 L 413.364 170.434 L 413.016 170.434 L 409.182 166.600 L 409.182 166.252 L 408.136 165.206 L 407.091 163.115 L 406.393 162.418 L 404.651 158.933 L 404.651 158.236 L 404.302 157.887 L 404.302 157.190 L 403.605 155.796 L 403.605 154.402 L 403.257 154.053 L 403.257 152.659 L 402.908 152.310 L 402.908 149.871 L 402.560 149.522 L 402.560 145.340 L 335.989 145.340 L 334.595 147.779 L 334.595 148.477 L 332.155 153.356 L 332.155 154.053 L 330.413 157.190 L 330.413 157.887 L 327.973 162.767 L 327.973 163.464 L 326.579 165.903 L 326.579 166.600 L 325.882 167.297 L 325.882 167.995 L 323.093 173.571 L 323.093 174.268 L 322.048 176.011 L 322.048 176.708 L 319.956 180.542 L 319.956 181.239 L 317.168 186.816 L 317.168 187.513 L 316.123 189.255 L 316.123 189.952 L 315.077 191.695 L 315.077 192.392 L 313.334 195.529 L 313.334 196.226 L 309.849 203.197 L 309.849 203.894 L 307.061 209.470 L 307.061 210.167 L 304.621 215.047 L 304.621 215.744 L 303.924 216.441 L 303.924 217.138 L 302.530 219.578 L 302.530 220.275 L 301.484 222.018 L 301.484 222.715 L 299.393 226.549 L 299.393 227.246 L 297.999 229.686 L 297.999 230.383 L 296.953 232.125 L 296.953 232.822 L 295.907 234.565 L 295.907 235.262 L 294.513 237.702 L 294.513 238.399 L 293.119 240.839 L 293.119 241.536 L 292.074 243.278 L 292.074 243.975 L 290.679 246.764 L 291.028 248.855 L 292.422 251.295 L 292.422 251.992 L 293.119 252.689 L 293.119 253.386 L 294.513 255.826 L 294.513 256.523 L 295.559 257.917 L 295.559 258.614 L 297.999 263.494 L 297.999 264.191 L 300.438 269.070 L 300.438 269.767 L 301.135 270.464 L 301.135 271.161 L 302.530 273.601 L 302.530 274.298 L 303.227 273.601 L 303.575 272.207 L 305.666 268.373 L 305.666 267.676 L 307.061 265.236 L 307.061 264.539 L 308.106 262.796 L 308.106 262.099 L 310.197 258.265 L 310.197 257.568 L 311.592 255.129 L 311.592 254.432 L 312.637 252.689 L 312.637 251.992 L 314.728 248.158 L 314.728 247.461 L 316.123 245.021 L 316.123 244.324 L 318.562 239.445 L 318.562 238.747 L 319.259 238.050 L 319.259 237.353 L 320.654 234.914 L 320.654 234.216 L 321.699 232.474 L 321.699 231.777 L 322.745 230.034 L 322.745 229.337 L 324.139 226.897 L 324.139 226.200 L 325.533 223.760 L 325.533 223.063 L 326.230 222.366 L 326.230 221.669 L 327.624 219.229 L 327.624 218.532 L 330.064 213.653 L 330.064 212.956 L 331.110 211.213 L 331.110 210.516 L 331.807 209.819 L 331.807 209.122 L 333.201 206.682 L 333.201 205.985 L 334.595 203.545 L 334.595 202.848 L 336.686 199.014 L 336.686 198.317 L 339.126 193.438 L 339.126 192.741 L 340.520 190.301 L 340.520 189.604 L 342.611 185.770 L 342.611 185.073 L 344.005 182.633 L 344.005 181.936 L 345.051 180.193 L 345.051 179.496 L 345.748 178.799 L 345.748 178.102 L 347.142 175.662 L 347.142 174.965 L 349.582 170.086 L 349.582 169.389 L 350.279 167.995 L 351.325 166.949 L 384.087 166.949 L 384.784 167.646 L 385.481 169.040 L 385.481 169.737 L 387.921 174.617 L 388.618 175.314 L 388.967 176.359 L 390.012 177.405 L 390.012 177.754 L 391.058 178.799 L 391.058 179.148 L 392.452 180.542 L 392.452 180.890 L 395.937 184.376 L 395.937 184.724 L 396.286 184.724 L 398.726 187.164 L 399.074 187.164 L 402.908 190.301 L 403.954 190.649 L 404.999 191.695 L 406.742 192.392 L 407.439 193.089 L 410.576 194.483 L 411.622 195.529 L 411.622 219.578 L 410.924 220.275 L 388.967 220.275 L 388.618 220.624 L 387.572 222.715 L 387.572 223.412 L 386.875 224.109 L 386.875 224.806 L 385.830 226.549 L 385.830 227.246 L 384.436 229.686 L 384.436 230.383 L 383.042 232.822 L 383.042 233.519 L 381.647 235.959 L 381.647 236.656 L 380.602 238.399 L 380.602 239.096 L 379.556 240.839 L 379.556 241.536 L 378.859 242.233 L 378.859 242.930 L 377.465 245.370 L 377.465 246.067 L 376.419 247.809 L 376.419 248.506 L 374.677 251.643 L 374.677 252.340 L 371.540 258.614 L 371.540 259.311 L 369.100 264.191 L 369.100 264.888 L 367.357 268.025 L 367.357 268.722 L 365.615 271.858 L 365.615 272.555 L 363.523 276.389 L 363.523 277.086 L 361.084 281.966 L 361.084 282.663 L 360.038 284.406 L 360.038 285.103 L 358.993 286.497 L 358.993 287.194 L 357.947 288.937 L 357.947 289.634 L 356.553 292.074 L 356.553 292.771 L 354.113 297.650 L 354.113 298.347 L 353.067 300.090 L 353.067 300.787 L 352.370 301.484 L 352.370 302.181 L 349.582 307.758 L 349.582 308.455 L 347.142 313.334 L 347.142 314.031 L 345.051 317.865 L 345.051 318.562 L 343.657 321.002 L 343.657 321.699 L 342.960 322.396 L 342.960 323.093 L 341.914 324.836 L 341.914 325.533 L 339.126 331.110 L 339.126 331.807 L 338.080 333.549 L 338.080 334.246 L 337.383 334.943 L 337.383 335.641 L 334.595 341.217 L 334.595 341.914 L 332.155 346.794 L 332.155 347.491 L 330.413 350.628 L 330.413 351.325 L 329.715 352.022 L 328.670 350.628 L 328.670 349.931 L 327.624 348.188 L 327.624 347.491 L 325.533 343.657 L 325.533 342.960 L 322.048 335.989 L 322.048 335.292 L 320.654 332.852 L 320.654 332.155 L 318.214 327.276 L 318.214 326.579 L 316.123 322.745 L 316.123 322.048 L 313.683 317.168 L 313.683 316.471 L 312.637 314.728 L 312.637 314.031 L 311.592 312.289 L 311.592 311.592 L 310.197 309.152 L 310.197 308.455 L 309.152 307.061 L 309.152 306.364 L 306.712 301.484 L 306.712 300.787 L 305.666 299.044 L 305.666 298.347 L 304.621 296.604 L 304.621 295.907 L 303.227 293.468 L 303.227 292.771 L 302.530 292.074 L 302.530 291.376 L 299.741 285.800 L 299.741 285.103 L 297.302 280.223 L 297.302 279.526 L 296.256 277.784 L 296.256 277.086 L 295.559 276.389 L 295.559 275.692 L 294.165 273.253 L 294.165 272.555 L 292.771 270.116 L 292.771 269.419 L 291.028 266.282 L 291.028 265.585 L 289.634 263.145 L 289.634 262.448 L 288.588 260.705 L 288.588 260.008 L 287.543 258.265 L 287.543 257.568 L 286.497 255.826 L 286.497 255.129 L 285.103 252.689 L 285.103 251.992 L 282.314 246.415 L 282.314 245.718 L 281.269 243.975 L 281.269 243.278 L 280.223 241.536 L 280.223 240.839 L 279.178 239.096 L 279.178 238.399 L 277.086 234.565 L 277.086 233.868 L 275.692 231.428 L 275.692 230.731 L 274.647 228.988 L 274.647 228.291 L 273.253 225.852 L 273.253 225.155 L 272.207 223.412 L 272.207 222.715 L 270.116 218.881 L 270.116 218.184 L 269.070 216.441 L 269.070 215.744 L 267.676 213.304 L 267.676 212.607 L 266.282 210.167 L 266.282 209.470 L 265.585 208.076 L 264.888 207.728 L 161.372 207.728 L 161.024 208.076 L 160.675 207.728 L 156.841 207.728 L 156.493 208.076 L 156.144 207.728 L 155.447 208.076 L 155.796 208.425 L 155.796 211.213 L 155.447 211.562 L 155.796 211.910 L 155.796 226.200 L 155.447 226.549 L 155.447 227.594 L 155.796 227.943 L 155.796 230.731 L 155.447 231.080 L 155.796 231.428 L 155.796 236.656 L 155.447 237.005 L 155.447 270.813 L 155.796 271.161 L 218.184 271.161 L 218.532 271.510 L 218.532 288.588 L 218.184 288.937 L 156.144 288.937 L 155.447 289.634 L 155.447 293.468 L 155.796 293.816 L 155.796 306.712 L 155.447 307.061 L 155.796 307.409 L 155.796 310.197 L 155.447 310.546 L 155.447 322.048 L 155.796 322.396 L 155.447 323.093 L 155.447 326.927 L 155.796 327.276 L 155.796 333.898 L 155.447 334.246 L 155.447 363.523 L 155.099 363.872 L 153.007 363.872 L 152.659 364.221 L 151.962 364.221 L 151.613 363.872 L 150.916 364.221 L 104.909 364.221 L 104.561 363.872 L 100.378 363.872 L 100.030 363.523 L 100.030 309.152 L 101.076 308.106 L 102.121 307.758 L 102.818 307.061 L 105.607 305.666 L 106.652 304.621 L 107.698 304.272 L 109.092 303.227 L 113.623 303.227 L 113.971 302.878 L 115.366 302.878 L 115.714 302.530 L 117.108 302.530 L 117.457 302.181 L 118.154 302.181 L 118.851 301.484 L 120.594 300.787 L 123.382 297.999 L 124.079 296.604 L 124.428 294.513 L 124.776 294.165 L 124.776 289.285 L 124.428 288.937 L 124.428 286.148 L 126.867 281.269 L 126.867 280.223 L 125.822 278.132 L 127.216 275.692 L 127.216 271.858 L 126.519 270.813 L 126.519 269.419 L 127.216 268.722 L 129.656 267.676 L 131.050 266.282 L 131.747 264.888 L 131.747 263.842 L 132.095 263.494 L 132.095 261.402 L 131.747 261.054 L 131.747 260.008 L 130.353 257.220 L 127.564 253.735 L 127.564 253.386 L 124.776 250.249 L 123.382 247.809 L 123.382 247.112 L 123.033 246.764 L 123.033 245.370 L 122.685 245.021 L 122.336 241.536 L 121.639 240.142 L 121.639 238.747 L 121.291 238.399 L 120.594 235.611 L 118.502 231.428 L 117.805 230.731 L 117.108 229.337 L 113.274 225.155 L 112.926 225.155 L 110.486 223.063 L 107.698 221.669 L 107.001 221.669 L 105.955 220.972 L 103.864 220.624 L 102.470 219.926 L 101.076 219.926 L 100.030 219.229 L 100.030 167.646 L 100.727 166.949 L 222.366 166.949 L 223.412 167.995 L 224.457 170.086 L 224.457 170.783 L 226.897 175.662 L 226.897 176.359 L 227.943 178.102 L 227.943 178.799 L 228.640 179.496 L 228.640 180.193 L 230.383 183.330 L 230.383 184.027 L 231.080 184.724 L 231.080 185.421 L 233.519 189.952 L 233.519 190.649 L 235.959 195.529 L 235.959 196.226 L 237.005 197.969 L 237.005 198.666 L 238.050 200.060 L 262.099 200.060 L 262.099 199.711 L 260.008 195.529 L 260.008 194.832 L 258.614 192.392 L 258.614 191.695 L 257.568 189.952 L 257.568 189.255 L 256.174 186.816 L 256.174 186.118 L 255.129 184.376 L 255.129 183.679 L 253.735 181.239 L 253.735 180.542 L 253.037 179.845 L 253.037 179.148 L 250.249 173.571 L 250.249 172.874 L 249.204 171.131 L 249.204 170.434 L 248.158 168.692 L 248.158 167.995 L 244.673 161.024 L 244.673 160.327 L 242.233 155.447 L 242.233 154.750 L 241.187 153.007 L 241.187 152.310 L 240.142 150.568 L 240.142 149.871 L 237.702 145.340 Z M 83.300 150.916 L 83.649 150.568 L 234.216 150.568 L 234.914 151.265 L 235.959 153.356 L 235.959 154.053 L 236.656 154.750 L 236.656 155.447 L 240.490 163.115 L 240.490 163.812 L 241.536 165.555 L 241.536 166.252 L 242.581 167.995 L 242.581 168.692 L 243.627 170.434 L 243.627 171.131 L 245.021 173.571 L 245.021 174.268 L 246.415 176.708 L 246.415 177.405 L 247.112 178.102 L 247.112 178.799 L 248.506 181.239 L 248.506 181.936 L 249.552 183.679 L 249.552 184.376 L 250.946 186.816 L 250.946 187.513 L 251.992 189.255 L 251.992 189.952 L 254.083 193.786 L 254.083 194.483 L 253.735 194.832 L 241.536 194.832 L 240.839 194.135 L 237.702 187.861 L 237.702 187.164 L 235.611 183.330 L 235.611 182.633 L 234.216 180.193 L 234.216 179.496 L 233.171 177.754 L 233.171 177.057 L 232.125 175.314 L 232.125 174.617 L 231.080 173.223 L 231.080 172.526 L 229.686 170.086 L 229.686 169.389 L 228.640 167.995 L 228.640 167.297 L 227.594 165.555 L 227.594 164.858 L 226.200 162.069 L 94.802 162.069 L 94.802 224.109 L 95.150 224.457 L 97.939 224.457 L 98.287 224.806 L 101.773 225.155 L 102.121 225.503 L 104.909 226.200 L 108.743 228.291 L 112.926 232.474 L 112.926 232.822 L 113.971 233.868 L 115.017 235.959 L 115.017 236.656 L 116.063 238.399 L 116.063 239.445 L 116.411 239.793 L 116.411 240.490 L 117.108 241.884 L 117.457 245.370 L 117.805 245.718 L 117.805 247.112 L 118.502 248.506 L 118.502 249.552 L 119.548 251.643 L 120.245 252.340 L 121.639 254.780 L 124.079 257.568 L 124.079 257.917 L 126.867 261.402 L 126.867 262.796 L 124.776 264.539 L 124.079 264.539 L 122.685 265.585 L 122.336 265.585 L 120.942 266.979 L 120.594 267.676 L 120.594 269.767 L 120.942 270.116 L 120.942 271.510 L 121.988 273.601 L 121.639 274.298 L 119.548 276.389 L 119.548 277.086 L 119.199 277.435 L 119.548 277.784 L 119.548 278.829 L 120.245 279.526 L 120.245 279.875 L 121.291 280.572 L 121.291 280.920 L 120.245 282.314 L 119.548 283.709 L 119.548 284.406 L 119.199 284.754 L 119.548 293.816 L 118.502 295.210 L 118.502 295.559 L 117.457 296.604 L 116.063 297.302 L 115.366 297.302 L 115.017 297.650 L 113.971 297.650 L 113.623 297.999 L 108.395 297.999 L 108.046 298.347 L 107.001 298.347 L 105.607 299.044 L 100.727 302.530 L 99.681 302.878 L 98.984 303.575 L 96.196 304.969 L 95.499 304.969 L 94.802 305.666 L 94.802 340.869 L 95.150 341.217 L 95.150 361.084 L 94.802 361.432 L 95.150 362.129 L 94.802 362.478 L 95.150 368.054 L 94.802 368.403 L 95.150 369.100 L 160.675 369.100 L 160.675 294.513 L 161.024 294.165 L 223.412 294.165 L 223.760 293.816 L 223.760 266.282 L 223.412 265.933 L 161.024 265.933 L 160.675 265.585 L 160.675 213.653 L 161.372 212.956 L 261.751 212.956 L 262.448 213.653 L 263.494 215.744 L 263.494 216.441 L 264.888 218.881 L 264.888 219.578 L 265.585 220.275 L 265.585 220.972 L 266.630 222.715 L 266.979 224.457 L 270.116 230.731 L 270.116 231.428 L 271.510 233.868 L 271.510 234.565 L 273.601 238.399 L 273.950 240.142 L 274.647 240.839 L 274.647 241.536 L 275.344 242.581 L 275.344 243.278 L 278.481 249.552 L 278.481 250.249 L 280.920 255.129 L 280.920 255.826 L 281.966 257.568 L 281.966 258.265 L 283.012 260.008 L 283.012 260.705 L 284.406 263.145 L 284.406 263.842 L 285.451 265.585 L 285.451 266.282 L 286.148 266.979 L 286.148 267.676 L 287.543 270.116 L 287.543 270.813 L 289.982 275.692 L 289.982 276.389 L 292.422 281.269 L 292.422 281.966 L 293.119 282.663 L 293.119 283.360 L 294.513 285.800 L 294.513 286.497 L 296.953 291.376 L 296.953 292.074 L 297.650 292.771 L 297.650 293.468 L 299.044 295.907 L 299.044 296.604 L 301.484 301.484 L 301.484 302.181 L 302.878 304.621 L 302.878 305.318 L 304.969 309.152 L 304.969 309.849 L 307.409 314.728 L 307.409 315.425 L 309.849 320.305 L 309.849 321.002 L 310.546 321.699 L 310.546 322.396 L 311.592 324.139 L 311.592 324.836 L 312.637 326.579 L 312.637 327.276 L 314.031 329.715 L 314.031 330.413 L 315.077 332.155 L 315.077 332.852 L 316.471 335.292 L 316.471 335.989 L 317.865 338.429 L 317.865 339.126 L 318.562 339.823 L 318.562 340.520 L 321.002 345.400 L 321.002 346.097 L 322.396 348.536 L 322.396 349.233 L 323.442 350.976 L 323.442 351.673 L 324.487 353.416 L 324.487 354.113 L 325.533 355.507 L 325.533 356.204 L 327.973 361.084 L 327.973 361.781 L 329.018 363.523 L 329.018 364.221 L 329.367 364.918 L 329.715 364.918 L 332.155 360.038 L 332.155 359.341 L 333.201 357.598 L 333.201 356.901 L 335.292 353.067 L 335.292 352.370 L 336.686 349.931 L 336.686 349.233 L 337.732 347.491 L 337.732 346.794 L 339.126 344.354 L 339.126 343.657 L 340.520 341.217 L 340.520 340.520 L 342.263 337.383 L 342.263 336.686 L 343.657 334.246 L 343.657 333.549 L 345.051 331.110 L 345.051 330.413 L 346.445 327.973 L 346.445 327.276 L 349.233 321.699 L 349.233 321.002 L 350.628 318.562 L 350.628 317.865 L 352.719 314.031 L 352.719 313.334 L 354.113 310.894 L 354.113 310.197 L 356.553 305.318 L 356.553 304.621 L 360.038 297.650 L 360.038 296.953 L 361.084 295.210 L 361.084 294.513 L 362.129 292.771 L 362.129 292.074 L 363.523 289.634 L 363.523 288.937 L 364.221 288.240 L 364.221 287.543 L 365.266 285.800 L 365.266 285.103 L 367.009 281.966 L 367.009 281.269 L 367.706 280.572 L 367.706 279.875 L 369.100 277.435 L 369.100 276.738 L 371.540 271.858 L 371.540 271.161 L 372.585 269.419 L 372.585 268.722 L 373.283 268.025 L 373.283 267.327 L 374.677 264.888 L 374.677 264.191 L 376.071 261.751 L 376.071 261.054 L 376.768 260.357 L 376.768 259.660 L 378.162 257.220 L 378.162 256.523 L 379.208 254.780 L 379.208 254.083 L 380.253 252.340 L 380.253 251.643 L 381.996 248.506 L 381.996 247.809 L 383.042 246.067 L 383.042 245.370 L 385.133 241.536 L 385.133 240.839 L 386.178 239.096 L 386.178 238.399 L 387.572 235.959 L 387.572 235.262 L 388.618 233.519 L 388.618 232.822 L 390.012 230.383 L 390.012 229.686 L 391.755 226.200 L 392.452 225.503 L 416.152 225.503 L 416.850 224.806 L 416.501 224.457 L 416.850 224.109 L 416.850 215.047 L 416.501 214.698 L 416.501 190.998 L 415.455 190.998 L 413.364 189.952 L 412.667 189.952 L 409.182 188.210 L 406.742 186.467 L 405.696 186.118 L 402.560 183.330 L 402.211 183.330 L 395.589 176.708 L 395.589 176.359 L 394.543 175.314 L 394.195 174.268 L 393.149 173.223 L 392.801 172.177 L 392.103 171.480 L 390.709 168.692 L 390.709 167.995 L 389.664 166.252 L 389.664 165.555 L 388.967 164.509 L 388.967 163.812 L 388.618 163.464 L 388.270 162.069 L 347.491 162.069 L 346.097 164.858 L 346.097 165.555 L 345.400 166.252 L 345.400 166.949 L 344.005 169.389 L 344.005 170.086 L 342.611 172.526 L 342.611 173.223 L 341.914 173.920 L 341.914 174.617 L 340.520 177.057 L 340.520 177.754 L 339.474 179.496 L 339.474 180.193 L 338.429 181.936 L 338.429 182.633 L 337.035 185.073 L 337.035 185.770 L 332.852 194.135 L 332.852 194.832 L 331.458 197.272 L 331.458 197.969 L 330.413 199.711 L 330.413 200.408 L 327.624 205.985 L 327.624 206.682 L 326.579 208.425 L 326.579 209.122 L 325.882 209.819 L 325.882 210.516 L 324.487 212.956 L 324.487 213.653 L 323.442 215.396 L 323.442 216.093 L 322.396 217.835 L 322.396 218.532 L 321.002 220.972 L 321.002 221.669 L 318.562 226.200 L 318.562 226.897 L 317.517 228.640 L 317.517 229.337 L 316.471 231.080 L 316.471 231.777 L 315.077 234.216 L 315.077 234.914 L 314.380 235.611 L 314.380 236.308 L 312.986 238.747 L 312.986 239.445 L 311.592 241.884 L 311.592 242.581 L 310.546 244.324 L 310.546 245.021 L 309.849 245.718 L 309.849 246.415 L 307.061 251.992 L 307.061 252.689 L 306.015 254.432 L 306.015 255.129 L 304.969 256.871 L 304.969 257.568 L 303.575 260.357 L 302.878 261.054 L 302.530 261.054 L 300.090 256.523 L 300.090 255.826 L 299.044 254.083 L 299.044 253.386 L 296.604 248.506 L 296.604 247.809 L 296.256 247.461 L 296.604 245.718 L 297.650 243.975 L 297.650 243.278 L 298.696 241.536 L 298.696 240.839 L 300.090 238.399 L 300.090 237.702 L 301.135 235.959 L 301.135 235.262 L 304.621 228.291 L 304.621 227.594 L 307.061 222.715 L 307.061 222.018 L 308.106 220.275 L 308.106 219.578 L 311.592 212.607 L 311.592 211.910 L 312.637 210.167 L 312.637 209.470 L 313.683 208.076 L 313.683 207.379 L 314.728 205.636 L 314.728 204.939 L 316.123 202.500 L 316.123 201.803 L 318.562 196.923 L 318.562 196.226 L 319.259 195.529 L 319.259 194.832 L 320.654 192.392 L 320.654 191.695 L 323.093 186.816 L 323.093 186.118 L 324.487 183.679 L 324.487 182.982 L 326.230 179.845 L 326.230 179.148 L 327.624 176.708 L 327.624 176.011 L 329.018 173.571 L 329.018 172.874 L 330.761 169.737 L 330.761 169.040 L 332.155 166.600 L 332.155 165.903 L 333.549 163.464 L 333.549 162.767 L 334.246 162.069 L 334.246 161.372 L 335.641 158.933 L 335.641 158.236 L 338.080 153.356 L 338.080 152.659 L 338.777 151.265 L 339.474 150.568 L 397.332 150.568 L 398.029 151.962 L 398.029 154.053 L 398.377 154.402 L 398.377 155.796 L 398.726 156.144 L 399.074 158.236 L 400.120 160.327 L 400.468 162.069 L 401.514 163.464 L 401.514 164.161 L 402.560 165.555 L 402.908 166.600 L 403.605 167.297 L 404.302 168.692 L 406.045 170.434 L 406.045 170.783 L 409.530 174.268 L 409.879 174.268 L 410.924 175.314 L 411.273 175.314 L 413.016 176.708 L 414.061 177.057 L 414.758 177.754 L 417.547 179.148 L 418.244 179.148 L 419.289 179.845 L 419.986 179.845 L 421.381 180.542 L 422.426 180.542 L 422.775 180.890 L 423.820 180.890 L 424.169 181.239 L 427.654 181.587 L 428.351 182.285 L 428.351 233.171 L 426.957 233.868 L 424.866 233.868 L 424.517 234.216 L 423.472 234.216 L 423.123 234.565 L 420.683 234.914 L 419.638 235.611 L 417.895 235.959 L 416.501 237.005 L 415.107 237.353 L 414.410 238.050 L 413.364 238.399 L 410.924 240.490 L 410.576 240.490 L 406.045 245.021 L 406.045 245.370 L 404.999 246.415 L 404.651 247.461 L 403.954 248.158 L 403.605 249.204 L 402.908 249.901 L 402.560 251.295 L 401.862 251.992 L 401.862 252.689 L 400.468 255.477 L 400.468 256.523 L 400.120 256.871 L 400.120 257.917 L 399.771 258.265 L 399.771 259.311 L 399.423 259.660 L 399.423 263.145 L 399.074 263.494 L 399.074 266.282 L 399.423 266.630 L 399.423 270.116 L 399.771 270.464 L 399.771 271.510 L 400.120 271.858 L 400.468 274.298 L 401.514 276.389 L 401.514 277.086 L 402.560 278.829 L 402.908 280.223 L 403.605 280.920 L 403.954 281.966 L 406.045 284.406 L 406.045 284.754 L 410.924 289.634 L 411.273 289.634 L 414.061 291.725 L 417.547 293.468 L 418.244 293.468 L 419.289 294.165 L 419.986 294.165 L 420.335 294.513 L 421.032 294.513 L 422.426 295.210 L 423.472 295.210 L 423.820 295.559 L 424.866 295.559 L 425.214 295.907 L 427.654 296.256 L 428.351 297.302 L 428.351 319.259 L 428.003 319.608 L 428.003 326.230 L 428.351 326.579 L 428.351 336.686 L 428.003 337.035 L 428.003 338.777 L 428.351 339.126 L 428.351 343.657 L 428.003 344.005 L 428.003 348.188 L 427.654 348.536 L 425.912 348.536 L 425.563 348.885 L 424.169 348.885 L 422.775 349.582 L 421.729 349.582 L 418.941 350.976 L 417.547 351.325 L 416.850 352.022 L 414.410 353.067 L 413.713 353.764 L 412.319 354.462 L 411.273 355.507 L 410.924 355.507 L 406.045 360.387 L 406.045 360.735 L 404.999 361.781 L 404.999 362.129 L 403.954 363.175 L 403.605 364.221 L 402.908 364.918 L 401.514 367.706 L 401.514 368.403 L 400.468 370.146 L 400.468 370.843 L 400.120 371.191 L 400.120 371.888 L 399.423 373.283 L 399.423 374.328 L 399.074 374.677 L 398.726 378.162 L 398.377 378.511 L 398.377 380.253 L 397.680 380.950 L 356.204 380.950 L 355.856 380.602 L 356.204 379.208 L 357.598 376.768 L 357.598 376.071 L 358.993 373.631 L 358.993 372.934 L 359.690 372.237 L 359.690 371.540 L 361.084 369.100 L 388.618 369.100 L 388.967 367.706 L 389.315 367.357 L 389.315 366.660 L 389.664 366.312 L 389.664 365.615 L 390.012 365.266 L 390.012 364.569 L 392.103 360.387 L 392.103 359.690 L 392.801 358.993 L 394.195 356.204 L 396.634 353.416 L 396.634 353.067 L 401.514 348.188 L 401.862 348.188 L 404.999 345.400 L 405.348 345.400 L 407.091 344.005 L 408.136 343.657 L 408.833 342.960 L 410.576 342.263 L 411.273 341.566 L 414.758 339.823 L 415.455 339.823 L 416.850 338.777 L 416.850 325.533 L 416.501 325.184 L 416.501 322.396 L 416.850 322.048 L 416.850 317.865 L 416.501 317.517 L 416.501 315.077 L 416.850 314.728 L 416.850 311.592 L 416.501 310.894 L 416.850 310.546 L 416.501 310.197 L 416.501 306.015 L 414.758 304.969 L 414.061 304.969 L 410.576 303.227 L 409.879 302.530 L 408.833 302.181 L 408.136 301.484 L 406.045 300.438 L 403.257 297.999 L 402.908 297.999 L 397.680 292.771 L 397.680 292.422 L 396.286 291.028 L 396.286 290.679 L 394.543 288.588 L 393.846 286.845 L 393.149 286.148 L 393.149 285.451 L 391.058 281.269 L 391.058 280.572 L 390.012 278.481 L 389.664 276.389 L 389.315 276.041 L 389.315 275.344 L 388.618 273.950 L 388.618 272.904 L 388.270 272.555 L 388.270 271.510 L 387.572 270.116 L 387.224 267.327 L 386.875 266.979 L 384.436 271.858 L 384.436 272.555 L 381.996 277.435 L 381.996 278.132 L 379.556 283.012 L 379.556 283.709 L 377.116 288.588 L 377.116 289.285 L 376.419 289.982 L 376.419 290.679 L 375.025 293.119 L 375.025 293.816 L 373.631 296.256 L 373.631 296.953 L 372.934 297.650 L 372.934 298.347 L 371.888 300.090 L 371.888 300.787 L 370.843 302.530 L 370.843 303.227 L 369.449 305.666 L 369.449 306.364 L 368.403 308.106 L 368.403 308.803 L 367.009 311.243 L 367.009 311.940 L 365.615 314.380 L 365.615 315.077 L 364.918 315.774 L 364.918 316.471 L 362.478 321.351 L 362.478 322.048 L 361.432 323.790 L 361.432 324.487 L 358.993 329.018 L 358.993 329.715 L 356.553 334.595 L 356.553 335.292 L 354.113 340.172 L 354.113 340.869 L 350.628 347.839 L 350.628 348.536 L 349.582 350.279 L 349.582 350.976 L 348.885 351.673 L 348.885 352.370 L 347.491 354.810 L 347.491 355.507 L 345.051 360.387 L 345.051 361.084 L 343.657 363.523 L 343.657 364.221 L 342.960 364.918 L 342.960 365.615 L 341.566 368.054 L 341.566 368.752 L 339.126 373.631 L 339.126 374.328 L 338.080 376.071 L 338.080 376.768 L 337.035 378.511 L 336.686 379.905 L 335.641 380.950 L 323.442 380.950 L 322.048 379.208 L 322.048 378.511 L 321.002 376.768 L 321.002 376.071 L 320.305 375.025 L 320.305 374.328 L 319.608 373.631 L 319.608 372.934 L 318.214 370.494 L 318.214 369.797 L 317.517 369.100 L 317.517 368.403 L 316.123 365.963 L 316.123 365.266 L 315.077 363.523 L 315.077 362.826 L 313.683 360.387 L 313.683 359.690 L 312.637 357.947 L 312.637 357.250 L 311.592 355.507 L 311.592 354.810 L 308.106 347.839 L 308.106 347.142 L 306.712 344.703 L 306.712 344.005 L 305.666 342.263 L 305.666 341.566 L 304.621 339.823 L 304.621 339.126 L 303.227 336.686 L 303.227 335.989 L 302.181 334.246 L 302.181 333.549 L 301.135 332.155 L 301.135 331.458 L 298.696 326.579 L 298.696 325.882 L 297.650 324.139 L 297.650 323.442 L 296.256 321.002 L 296.256 320.305 L 295.210 318.562 L 295.210 317.865 L 294.513 317.168 L 294.513 316.471 L 291.725 310.894 L 291.725 310.197 L 290.679 308.455 L 290.679 307.758 L 289.634 306.015 L 289.634 305.318 L 286.148 298.347 L 286.148 297.650 L 283.709 292.771 L 283.709 292.074 L 282.663 290.331 L 282.663 289.634 L 281.269 287.194 L 281.269 286.497 L 280.223 284.754 L 280.223 284.057 L 278.132 280.223 L 278.132 279.526 L 276.738 277.086 L 276.738 276.389 L 275.692 274.647 L 275.692 273.950 L 274.298 271.510 L 274.298 270.813 L 273.253 269.070 L 273.253 268.373 L 272.207 266.630 L 272.207 265.933 L 271.161 264.191 L 271.161 263.494 L 269.070 259.660 L 269.070 258.963 L 266.282 253.386 L 266.282 252.689 L 265.236 250.946 L 265.236 250.249 L 264.191 248.506 L 264.191 247.809 L 262.796 245.370 L 262.796 244.673 L 261.054 241.536 L 261.054 240.839 L 259.660 238.399 L 259.660 237.702 L 258.614 235.959 L 258.614 235.262 L 257.568 233.519 L 257.568 232.822 L 256.174 230.383 L 256.174 229.686 L 253.735 224.806 L 172.526 224.806 L 172.526 254.432 L 234.565 254.432 L 235.262 255.129 L 235.262 305.318 L 234.565 306.015 L 172.526 306.015 L 172.526 380.253 L 171.828 380.950 L 83.997 380.950 L 83.300 380.253 L 83.300 296.953 L 83.997 296.256 L 84.694 296.256 L 85.043 295.907 L 86.088 295.907 L 86.437 295.559 L 88.180 295.559 L 88.528 295.210 L 90.968 294.862 L 91.317 294.513 L 94.105 293.816 L 95.150 293.119 L 95.848 293.119 L 100.378 290.679 L 101.424 289.634 L 101.773 289.634 L 105.607 285.800 L 107.001 283.012 L 107.698 282.314 L 107.698 281.617 L 108.046 281.269 L 108.046 280.572 L 108.743 279.526 L 108.743 278.481 L 109.092 278.132 L 109.092 276.738 L 109.440 276.389 L 109.440 274.995 L 109.789 274.647 L 109.789 271.510 L 110.138 271.161 L 110.138 269.070 L 110.486 268.722 L 110.486 267.327 L 111.183 265.933 L 111.183 259.311 L 110.835 258.963 L 110.835 257.917 L 110.486 257.568 L 110.486 256.523 L 110.138 256.174 L 109.789 254.083 L 108.743 252.340 L 108.743 251.643 L 106.652 247.461 L 105.955 246.764 L 104.561 244.324 L 102.121 241.884 L 102.121 241.536 L 101.773 241.536 L 99.333 239.096 L 98.984 239.096 L 96.196 237.005 L 94.802 236.656 L 94.105 235.959 L 92.362 235.611 L 90.271 234.565 L 89.225 234.565 L 88.877 234.216 L 87.831 234.216 L 87.483 233.868 L 85.391 233.868 L 85.043 233.519 L 83.649 233.519 L 83.300 233.171 Z" fill="#ffffff" fill-rule="evenodd"/>
</svg>